<svg
  xmlns="http://www.w3.org/2000/svg"
  width="20"
  height="20"
  viewBox="0 0 24 24"
  fill="currentColor"
>
  <path d="M12 0C5.37 0 0 5.37 0 12c0 5.3 3.438 9.8 8.205 11.385.6.11.82-.26.82-.577v-2.157c-3.338.725-4.042-1.61-4.042-1.61-.546-1.387-1.333-1.758-1.333-1.758-1.09-.744.083-.729.083-.729 1.204.084 1.837 1.236 1.837 1.236 1.07 1.834 2.808 1.304 3.492.998.11-.774.418-1.305.76-1.606-2.665-.305-5.467-1.33-5.467-5.926 0-1.31.467-2.382 1.236-3.222-.124-.304-.536-1.528.117-3.186 0 0 1.008-.322 3.3 1.23.957-.266 1.983-.399 3.005-.404 1.022.005 2.048.138 3.007.404 2.29-1.552 3.296-1.23 3.296-1.23.655 1.658.244 2.882.12 3.186.77.84 1.233 1.912 1.233 3.222 0 4.61-2.807 5.617-5.478 5.916.43.37.816 1.103.816 2.223v3.293c0 .32.218.694.825.574C20.565 21.797 24 17.297 24 12 24 5.37 18.63 0 12 0z"/>
</svg>
